<svg fill="#e7c921" xmlns="http://www.w3.org/2000/svg" viewBox="0 0 195.13 172.82"><path d="M312.24,551.44h-1.65q-17.4,0-34.8,0a11.93,11.93,0,0,1-3.08-.3,4.91,4.91,0,0,1-3.09-7.24,8.68,8.68,0,0,1,1.52-2q21.15-21.19,42.32-42.36c2.28-2.28,5.58-3.09,8.17-.51,0.51,0.5,1.1.93,1.6,1.44q19.61,19.59,39.2,39.2c0.34,0.34.61,0.73,0.94,1.15,0.44-.4.71-0.62,1-0.87,6.8-6.77,13.64-13.51,20.38-20.34a19.05,19.05,0,0,1,13.81-5.67c9.31-.17,18.63-0.23,27.94-0.34l18.95-.24c3.76,0,7.52-.14,11.27-0.1,2.94,0,5.43,1,6.79,3.85a7.28,7.28,0,0,1,.16,5.5,19.76,19.76,0,0,1-4.88,7.74q-15.31,15.81-30.7,31.55l-34.2,35.17A33.58,33.58,0,0,1,391,600a4,4,0,0,0-1.4,3.56q0.05,30.3,0,60.6c0,3-1.39,5.15-3.8,5.88a5.35,5.35,0,0,1-4.68-.79,10.88,10.88,0,0,1-1.64-1.39q-17.06-17-34.11-34.11-14.63-14.64-29.24-29.31a12.61,12.61,0,0,1-4-9.41c0.12-14,0-27.92,0-41.88v-1.7ZM455.38,521.7l-0.2-.34h-1.3q-10.31.12-20.63,0.24c-11.47.11-22.95,0.17-34.42,0.35a11.38,11.38,0,0,0-8.6,3.58c-2.3,2.49-4.81,4.8-7.22,7.2l-33.79,33.74-0.51.51q-13.48,13.42-27,26.84a3.08,3.08,0,0,0,0,4.75l27.66,27.66a3.16,3.16,0,0,0,4.93-.09q5.62-5.82,11.26-11.63L391.2,588.2,425.41,553q13.43-13.8,26.85-27.59C453.39,524.28,454.34,523,455.38,521.7Zm-97.87,24.66-37.18-37.17v74.64Zm0.22,87.74L381.59,658V609.82a5.17,5.17,0,0,0-.48.37q-6.65,6.83-13.29,13.66C364.39,627.36,360.94,630.84,357.73,634.09Zm-45.55-121.3L281.58,543.4h30.61V512.79Z" transform="translate(-268.97 -497.43)"></path></svg>